<svg width="170" height="149" fill="none" xmlns="http://www.w3.org/2000/svg"><path fill-rule="evenodd" clip-rule="evenodd" d="M52.003 50h80.994c.002-.166.003-.333.003-.5C133 27.872 115.057 10 92.5 10S52 27.872 52 49.5c0 .167.001.334.003.5zm-10 0a48.964 48.964 0 01-.003-.5C42 22.162 64.61 0 92.5 0S143 22.162 143 49.5c0 .167-.001.334-.003.5H170l-13.655 60.081C151.171 132.845 130.934 149 107.589 149H78.943c-22.899 0-42.871-15.556-48.478-37.758L15 50h27.002z" fill="#b19292"/><circle cx="3.5" cy="3.5" r="3.5" transform="translate(111 81)" fill="#7f7676"/><circle cx="3.5" cy="3.5" r="3.5" transform="translate(70 81)" fill="#7f7676"/><path d="M82.11 114.14c.001-.622.3-1.21.818-1.556 6.602-4.41 13.112-4.674 19.91.151.441.313.71.812.75 1.351.14 1.811-2.249 2.873-3.74 1.836-4.381-3.046-9.138-3.41-14.133-.086-1.442.96-3.609.037-3.605-1.695z" fill="#7f7676"/><path d="M53 95.5c0 14.703-11.483 26.5-25.5 26.5S2 110.203 2 95.5C2 80.796 13.483 69 27.5 69S53 80.796 53 95.5z" fill="#b19292" fill-opacity=".7" stroke="#7f7676" stroke-width="4" stroke-miterlimit="4.29" stroke-linecap="square"/><path d="M33.117 95.723c0 2.539-.433 4.425-1.3 5.66-.868 1.234-2.223 1.851-4.067 1.851-1.82 0-3.168-.601-4.043-1.804-.875-1.211-1.328-3.016-1.36-5.414V93.12c0-2.508.434-4.371 1.301-5.59.868-1.218 2.227-1.828 4.079-1.828 1.835 0 3.187.59 4.054 1.77.867 1.172 1.313 2.984 1.336 5.437v2.813zm-2.168-2.965c0-1.836-.258-3.172-.773-4.008-.516-.844-1.332-1.266-2.45-1.266-1.109 0-1.917.418-2.425 1.254-.508.836-.77 2.121-.785 3.856v3.469c0 1.843.265 3.206.796 4.09.54.874 1.352 1.312 2.438 1.312 1.07 0 1.863-.414 2.379-1.242.523-.828.797-2.133.82-3.914v-3.551z" fill="#7f7676"/></svg>