<svg width="650" height="140" viewBox="0 0 650 140" fill="none" xmlns="http://www.w3.org/2000/svg">
<rect width="650" height="140" fill="#FAFAFA"/>
<path d="M222.664 37.9143H228.016V39.8583H222.664V37.9143ZM235.548 26.6823H237.804L239.892 40.6503L242.508 26.7543H244.428L247.068 40.7223L249.108 26.6823H251.316L248.196 46.1223H246.228L243.516 31.7223L240.78 46.1223H238.716L235.548 26.6823ZM257.046 46.3143C255.574 46.3143 254.526 45.8823 253.902 45.0183C253.294 44.1383 252.99 42.8663 252.99 41.2023V37.1703C252.99 35.5063 253.294 34.2423 253.902 33.3783C254.526 32.4983 255.574 32.0583 257.046 32.0583C258.502 32.0583 259.534 32.4983 260.142 33.3783C260.766 34.2423 261.078 35.5063 261.078 37.1703V41.2023C261.078 42.8663 260.766 44.1383 260.142 45.0183C259.534 45.8823 258.502 46.3143 257.046 46.3143ZM257.046 44.4183C257.51 44.4183 257.846 44.2823 258.054 44.0103C258.262 43.7383 258.39 43.4023 258.438 43.0023C258.486 42.6023 258.51 42.0583 258.51 41.3703V37.0263C258.51 36.3383 258.486 35.7943 258.438 35.3943C258.39 34.9783 258.262 34.6343 258.054 34.3623C257.846 34.0903 257.51 33.9543 257.046 33.9543C256.582 33.9543 256.238 34.0903 256.014 34.3623C255.806 34.6343 255.678 34.9783 255.63 35.3943C255.582 35.7943 255.558 36.3383 255.558 37.0263V41.3703C255.558 42.0583 255.582 42.6023 255.63 43.0023C255.678 43.4023 255.806 43.7383 256.014 44.0103C256.238 44.2823 256.582 44.4183 257.046 44.4183ZM263.497 32.2503H266.065V34.2183C266.545 33.4343 267.033 32.8823 267.529 32.5623C268.041 32.2423 268.577 32.0823 269.137 32.0823C269.281 32.0823 269.417 32.0903 269.545 32.1063V34.9383C269.033 34.7463 268.561 34.6503 268.129 34.6503C267.713 34.6503 267.337 34.7543 267.001 34.9623C266.681 35.1543 266.369 35.4983 266.065 35.9943V46.1223H263.497V32.2503ZM271.208 32.2503H273.776V34.2183C274.256 33.4343 274.744 32.8823 275.24 32.5623C275.752 32.2423 276.288 32.0823 276.848 32.0823C276.992 32.0823 277.128 32.0903 277.256 32.1063V34.9383C276.744 34.7463 276.272 34.6503 275.84 34.6503C275.424 34.6503 275.048 34.7543 274.712 34.9623C274.392 35.1543 274.08 35.4983 273.776 35.9943V46.1223H271.208V32.2503ZM278.631 47.6343C279.591 47.6343 280.247 47.5623 280.599 47.4183C280.967 47.2743 281.151 47.0023 281.151 46.6023C281.151 46.4103 280.975 45.5623 280.623 44.0583L277.839 32.2503H280.431L282.303 42.6183L284.103 32.2503H286.695L283.383 46.8903C283.159 47.8663 282.687 48.5623 281.967 48.9783C281.247 49.3943 280.239 49.6023 278.943 49.6023H278.631V47.6343ZM293.946 26.6823H301.458V28.6263H296.658V35.1063H300.378V37.0263H296.658V46.1223H293.946V26.6823ZM303.177 32.2503H305.745V34.2183C306.225 33.4343 306.713 32.8823 307.209 32.5623C307.721 32.2423 308.257 32.0823 308.817 32.0823C308.961 32.0823 309.097 32.0903 309.225 32.1063V34.9383C308.713 34.7463 308.241 34.6503 307.809 34.6503C307.393 34.6503 307.017 34.7543 306.681 34.9623C306.361 35.1543 306.049 35.4983 305.745 35.9943V46.1223H303.177V32.2503ZM314.656 46.3143C313.584 46.3143 312.752 46.1143 312.16 45.7143C311.568 45.2983 311.152 44.6903 310.912 43.8903C310.672 43.0903 310.552 42.0503 310.552 40.7703V37.6023C310.552 35.6823 310.848 34.2823 311.44 33.4023C312.048 32.5063 313.12 32.0583 314.656 32.0583C315.776 32.0583 316.616 32.2903 317.176 32.7543C317.752 33.2183 318.128 33.8743 318.304 34.7223C318.496 35.5543 318.592 36.6823 318.592 38.1063V39.2343H313.12V42.0183C313.12 42.8663 313.24 43.4823 313.48 43.8663C313.736 44.2343 314.136 44.4183 314.68 44.4183C315.224 44.4183 315.592 44.2343 315.784 43.8663C315.976 43.4823 316.072 42.9063 316.072 42.1383V41.2983H318.568V41.8263C318.568 43.2823 318.256 44.3943 317.632 45.1623C317.008 45.9303 316.016 46.3143 314.656 46.3143ZM316.072 37.8423V36.5943C316.072 35.6503 315.976 34.9783 315.784 34.5783C315.608 34.1623 315.224 33.9543 314.632 33.9543C314.216 33.9543 313.896 34.0503 313.672 34.2423C313.464 34.4343 313.32 34.7543 313.24 35.2023C313.16 35.6343 313.12 36.2663 313.12 37.0983V37.8423H316.072ZM324.757 46.3143C323.685 46.3143 322.853 46.1143 322.261 45.7143C321.669 45.2983 321.253 44.6903 321.013 43.8903C320.773 43.0903 320.653 42.0503 320.653 40.7703V37.6023C320.653 35.6823 320.949 34.2823 321.541 33.4023C322.149 32.5063 323.221 32.0583 324.757 32.0583C325.877 32.0583 326.717 32.2903 327.277 32.7543C327.853 33.2183 328.229 33.8743 328.405 34.7223C328.597 35.5543 328.693 36.6823 328.693 38.1063V39.2343H323.221V42.0183C323.221 42.8663 323.341 43.4823 323.581 43.8663C323.837 44.2343 324.237 44.4183 324.781 44.4183C325.325 44.4183 325.693 44.2343 325.885 43.8663C326.077 43.4823 326.173 42.9063 326.173 42.1383V41.2983H328.669V41.8263C328.669 43.2823 328.357 44.3943 327.733 45.1623C327.109 45.9303 326.117 46.3143 324.757 46.3143ZM326.173 37.8423V36.5943C326.173 35.6503 326.077 34.9783 325.885 34.5783C325.709 34.1623 325.325 33.9543 324.733 33.9543C324.317 33.9543 323.997 34.0503 323.773 34.2423C323.565 34.4343 323.421 34.7543 323.341 35.2023C323.261 35.6343 323.221 36.2663 323.221 37.0983V37.8423H326.173ZM341.303 46.3383C339.671 46.3383 338.423 45.8343 337.559 44.8263C336.711 43.8183 336.239 42.4343 336.143 40.6743L338.543 40.0263C338.623 41.2743 338.863 42.2823 339.263 43.0503C339.679 43.8183 340.359 44.2023 341.303 44.2023C342.007 44.2023 342.535 44.0103 342.887 43.6263C343.255 43.2263 343.439 42.6583 343.439 41.9223C343.439 41.1223 343.271 40.4583 342.935 39.9303C342.599 39.4023 342.063 38.8183 341.327 38.1783L338.063 35.2983C337.407 34.7223 336.927 34.1063 336.623 33.4503C336.335 32.7783 336.191 31.9623 336.191 31.0023C336.191 29.5783 336.599 28.4743 337.415 27.6903C338.231 26.9063 339.343 26.5143 340.751 26.5143C342.287 26.5143 343.447 26.9223 344.231 27.7383C345.015 28.5543 345.487 29.8183 345.647 31.5303L343.343 32.1543C343.263 31.0183 343.039 30.1463 342.671 29.5383C342.319 28.9143 341.679 28.6023 340.751 28.6023C340.063 28.6023 339.535 28.7863 339.167 29.1543C338.799 29.5063 338.615 30.0343 338.615 30.7383C338.615 31.3143 338.711 31.8023 338.903 32.2023C339.095 32.5863 339.423 32.9783 339.887 33.3783L343.175 36.2583C344.023 37.0103 344.695 37.8263 345.191 38.7063C345.703 39.5863 345.959 40.5863 345.959 41.7063C345.959 43.1303 345.527 44.2583 344.663 45.0903C343.799 45.9223 342.679 46.3383 341.303 46.3383ZM347.919 26.6823H350.487V33.6903C351.639 32.6023 352.799 32.0583 353.967 32.0583C354.719 32.0583 355.247 32.3303 355.551 32.8743C355.871 33.4183 356.031 34.0903 356.031 34.8903V46.1223H353.463V35.6343C353.463 35.1063 353.383 34.7143 353.223 34.4583C353.063 34.2023 352.775 34.0743 352.359 34.0743C351.799 34.0743 351.175 34.3783 350.487 34.9863V46.1223H347.919V26.6823ZM362.35 46.3143C360.878 46.3143 359.83 45.8823 359.206 45.0183C358.598 44.1383 358.294 42.8663 358.294 41.2023V37.1703C358.294 35.5063 358.598 34.2423 359.206 33.3783C359.83 32.4983 360.878 32.0583 362.35 32.0583C363.806 32.0583 364.838 32.4983 365.446 33.3783C366.07 34.2423 366.382 35.5063 366.382 37.1703V41.2023C366.382 42.8663 366.07 44.1383 365.446 45.0183C364.838 45.8823 363.806 46.3143 362.35 46.3143ZM362.35 44.4183C362.814 44.4183 363.15 44.2823 363.358 44.0103C363.566 43.7383 363.694 43.4023 363.742 43.0023C363.79 42.6023 363.814 42.0583 363.814 41.3703V37.0263C363.814 36.3383 363.79 35.7943 363.742 35.3943C363.694 34.9783 363.566 34.6343 363.358 34.3623C363.15 34.0903 362.814 33.9543 362.35 33.9543C361.886 33.9543 361.542 34.0903 361.318 34.3623C361.11 34.6343 360.982 34.9783 360.934 35.3943C360.886 35.7943 360.862 36.3383 360.862 37.0263V41.3703C360.862 42.0583 360.886 42.6023 360.934 43.0023C360.982 43.4023 361.11 43.7383 361.318 44.0103C361.542 44.2823 361.886 44.4183 362.35 44.4183ZM368.73 32.2503H371.298V33.3543C372.05 32.4903 372.93 32.0583 373.938 32.0583C375.202 32.0583 376.042 32.6023 376.458 33.6903C376.89 34.7623 377.106 35.9543 377.106 37.2663V40.6263C377.106 42.3223 376.842 43.6983 376.314 44.7543C375.802 45.7943 374.914 46.3143 373.65 46.3143C372.834 46.3143 372.05 45.9063 371.298 45.0903V50.6823H368.73V32.2503ZM373.146 44.2983C373.738 44.2983 374.114 44.0023 374.274 43.4103C374.45 42.8023 374.538 41.8743 374.538 40.6263V37.2663C374.538 36.2423 374.442 35.4583 374.25 34.9143C374.058 34.3543 373.658 34.0743 373.05 34.0743C372.458 34.0743 371.874 34.3143 371.298 34.7943V43.6743C371.858 44.0903 372.474 44.2983 373.146 44.2983ZM379.441 32.2503H382.009V33.3543C382.761 32.4903 383.641 32.0583 384.649 32.0583C385.913 32.0583 386.753 32.6023 387.169 33.6903C387.601 34.7623 387.817 35.9543 387.817 37.2663V40.6263C387.817 42.3223 387.553 43.6983 387.025 44.7543C386.513 45.7943 385.625 46.3143 384.361 46.3143C383.545 46.3143 382.761 45.9063 382.009 45.0903V50.6823H379.441V32.2503ZM383.857 44.2983C384.449 44.2983 384.825 44.0023 384.985 43.4103C385.161 42.8023 385.249 41.8743 385.249 40.6263V37.2663C385.249 36.2423 385.153 35.4583 384.961 34.9143C384.769 34.3543 384.369 34.0743 383.761 34.0743C383.169 34.0743 382.585 34.3143 382.009 34.7943V43.6743C382.569 44.0903 383.185 44.2983 383.857 44.2983ZM390.319 27.4983H392.887V30.1863H390.319V27.4983ZM390.319 32.2503H392.887V46.1223H390.319V32.2503ZM395.636 32.2503H398.204V33.6183C399.308 32.5783 400.436 32.0583 401.588 32.0583C402.34 32.0583 402.876 32.3303 403.196 32.8743C403.516 33.4183 403.676 34.0903 403.676 34.8903V46.1223H401.108V35.6343C401.108 35.1063 401.028 34.7143 400.868 34.4583C400.708 34.2023 400.42 34.0743 400.004 34.0743C399.492 34.0743 398.892 34.3623 398.204 34.9383V46.1223H395.636V32.2503ZM409.783 50.4183C408.439 50.4183 407.367 50.2023 406.567 49.7703C405.767 49.3543 405.367 48.6983 405.367 47.8023C405.367 47.1943 405.551 46.6663 405.919 46.2183C406.303 45.7703 406.783 45.4103 407.359 45.1383C406.927 45.0103 406.591 44.8103 406.351 44.5383C406.127 44.2663 406.015 43.9703 406.015 43.6503C406.015 43.1703 406.135 42.7543 406.375 42.4023C406.615 42.0503 407.007 41.6263 407.551 41.1303C407.007 40.7143 406.599 40.1943 406.327 39.5703C406.071 38.9303 405.943 38.0743 405.943 37.0023C405.943 35.3863 406.271 34.1623 406.927 33.3303C407.599 32.4823 408.575 32.0583 409.855 32.0583C410.591 32.0583 411.191 32.1863 411.655 32.4423C412.119 32.6983 412.471 33.0823 412.711 33.5943C412.823 33.4183 413.055 33.1863 413.407 32.8983C413.775 32.5943 414.167 32.3463 414.583 32.1543L414.967 31.9863L415.615 33.6423C415.295 33.7063 414.847 33.8423 414.271 34.0503C413.711 34.2583 413.375 34.4183 413.263 34.5303C413.375 34.8183 413.471 35.2183 413.551 35.7303C413.647 36.2423 413.695 36.6903 413.695 37.0743C413.695 38.5943 413.399 39.7783 412.807 40.6263C412.215 41.4583 411.231 41.8743 409.855 41.8743C409.423 41.8743 408.983 41.8183 408.535 41.7063C408.231 42.1543 408.079 42.5063 408.079 42.7623C408.079 42.9383 408.167 43.0823 408.343 43.1943C408.535 43.2903 408.831 43.3543 409.231 43.3863L411.391 43.5783C412.479 43.6743 413.287 44.0023 413.815 44.5623C414.343 45.1223 414.607 45.9223 414.607 46.9623C414.607 49.2663 412.999 50.4183 409.783 50.4183ZM409.855 40.0743C410.543 40.0743 410.991 39.8343 411.199 39.3543C411.407 38.8743 411.511 38.0903 411.511 37.0023C411.511 35.8983 411.407 35.0983 411.199 34.6023C410.991 34.0903 410.551 33.8343 409.879 33.8343C409.207 33.8343 408.751 34.0903 408.511 34.6023C408.287 35.0983 408.175 35.8983 408.175 37.0023C408.175 37.9943 408.287 38.7543 408.511 39.2823C408.751 39.8103 409.199 40.0743 409.855 40.0743ZM409.975 48.4023C410.887 48.4023 411.559 48.2903 411.991 48.0663C412.423 47.8583 412.639 47.5143 412.639 47.0343C412.639 46.5863 412.503 46.2583 412.231 46.0503C411.959 45.8263 411.463 45.6823 410.743 45.6183L408.559 45.4263C408.223 45.7623 407.967 46.0583 407.791 46.3143C407.615 46.5703 407.527 46.8503 407.527 47.1543C407.527 47.5863 407.703 47.8983 408.055 48.0903C408.423 48.2983 409.063 48.4023 409.975 48.4023ZM421.977 37.9143H427.329V39.8583H421.977V37.9143Z" fill="#333333"/>
<path d="M113.882 83.214H118.264V84.348H115.464V88.128H117.634V89.248H115.464V94.554H113.882V83.214ZM119.351 83.214H121.633C122.781 83.214 123.621 83.452 124.153 83.928C124.694 84.3946 124.965 85.16 124.965 86.224C124.965 87.68 124.498 88.562 123.565 88.87L125.175 94.554H123.649L122.165 89.234H120.933V94.554H119.351V83.214ZM121.535 88.1C122.216 88.1 122.701 87.9646 122.991 87.694C123.289 87.4233 123.439 86.9333 123.439 86.224C123.439 85.7573 123.387 85.3933 123.285 85.132C123.182 84.8613 123 84.6653 122.739 84.544C122.477 84.4133 122.109 84.348 121.633 84.348H120.933V88.1H121.535ZM126.611 83.214H131.007V84.39H128.193V88.142H130.475V89.262H128.193V93.42H131.035V94.554H126.611V83.214ZM132.312 83.214H136.708V84.39H133.894V88.142H136.176V89.262H133.894V93.42H136.736V94.554H132.312V83.214ZM141.212 83.214H144.026C145.006 83.214 145.715 83.48 146.154 84.012C146.602 84.544 146.826 85.3233 146.826 86.35C146.826 87.274 146.588 87.9926 146.112 88.506C145.636 89.0193 144.945 89.276 144.04 89.276H142.794V94.554H141.212V83.214ZM143.522 88.142C143.989 88.142 144.348 88.0906 144.6 87.988C144.861 87.8853 145.048 87.708 145.16 87.456C145.272 87.204 145.328 86.84 145.328 86.364C145.328 85.7853 145.286 85.3606 145.202 85.09C145.118 84.8193 144.95 84.628 144.698 84.516C144.455 84.404 144.068 84.348 143.536 84.348H142.794V88.142H143.522ZM147.939 83.214H150.221C151.369 83.214 152.209 83.452 152.741 83.928C153.282 84.3946 153.553 85.16 153.553 86.224C153.553 87.68 153.086 88.562 152.153 88.87L153.763 94.554H152.237L150.753 89.234H149.521V94.554H147.939V83.214ZM150.123 88.1C150.804 88.1 151.289 87.9646 151.579 87.694C151.877 87.4233 152.027 86.9333 152.027 86.224C152.027 85.7573 151.975 85.3933 151.873 85.132C151.77 84.8613 151.588 84.6653 151.327 84.544C151.065 84.4133 150.697 84.348 150.221 84.348H149.521V88.1H150.123ZM155.282 83.214H156.836V94.554H155.282V83.214ZM161.569 94.68C160.458 94.68 159.66 94.3673 159.175 93.742C158.699 93.1073 158.461 92.1926 158.461 90.998V86.7C158.461 85.524 158.704 84.6326 159.189 84.026C159.674 83.4193 160.468 83.116 161.569 83.116C162.67 83.116 163.459 83.424 163.935 84.04C164.42 84.6466 164.663 85.5333 164.663 86.7V91.012C164.663 92.188 164.42 93.0933 163.935 93.728C163.45 94.3626 162.661 94.68 161.569 94.68ZM161.569 93.434C162.157 93.434 162.554 93.2613 162.759 92.916C162.964 92.5706 163.067 92.048 163.067 91.348V86.378C163.067 85.6873 162.964 85.1786 162.759 84.852C162.554 84.516 162.157 84.348 161.569 84.348C160.972 84.348 160.57 84.516 160.365 84.852C160.16 85.1786 160.057 85.6873 160.057 86.378V91.348C160.057 92.048 160.16 92.5706 160.365 92.916C160.57 93.2613 160.972 93.434 161.569 93.434ZM166.218 83.214H168.5C169.648 83.214 170.488 83.452 171.02 83.928C171.561 84.3946 171.832 85.16 171.832 86.224C171.832 87.68 171.365 88.562 170.432 88.87L172.042 94.554H170.516L169.032 89.234H167.8V94.554H166.218V83.214ZM168.402 88.1C169.083 88.1 169.569 87.9646 169.858 87.694C170.157 87.4233 170.306 86.9333 170.306 86.224C170.306 85.7573 170.255 85.3933 170.152 85.132C170.049 84.8613 169.867 84.6653 169.606 84.544C169.345 84.4133 168.976 84.348 168.5 84.348H167.8V88.1H168.402ZM173.562 83.214H175.116V94.554H173.562V83.214ZM178.196 84.39H176.278V83.214H181.64V84.39H179.778V94.554H178.196V84.39ZM184.47 90.55L182.02 83.214H183.49L185.226 88.688L186.934 83.214H188.418L185.982 90.55V94.554H184.47V90.55ZM195.347 94.68C194.395 94.68 193.667 94.386 193.163 93.798C192.668 93.21 192.393 92.4026 192.337 91.376L193.737 90.998C193.784 91.726 193.924 92.314 194.157 92.762C194.4 93.21 194.796 93.434 195.347 93.434C195.758 93.434 196.066 93.322 196.271 93.098C196.486 92.8646 196.593 92.5333 196.593 92.104C196.593 91.6373 196.495 91.25 196.299 90.942C196.103 90.634 195.79 90.2933 195.361 89.92L193.457 88.24C193.074 87.904 192.794 87.5446 192.617 87.162C192.449 86.77 192.365 86.294 192.365 85.734C192.365 84.9033 192.603 84.2593 193.079 83.802C193.555 83.3446 194.204 83.116 195.025 83.116C195.921 83.116 196.598 83.354 197.055 83.83C197.512 84.306 197.788 85.0433 197.881 86.042L196.537 86.406C196.49 85.7433 196.36 85.2346 196.145 84.88C195.94 84.516 195.566 84.334 195.025 84.334C194.624 84.334 194.316 84.4413 194.101 84.656C193.886 84.8613 193.779 85.1693 193.779 85.58C193.779 85.916 193.835 86.2006 193.947 86.434C194.059 86.658 194.25 86.8866 194.521 87.12L196.439 88.8C196.934 89.2386 197.326 89.7146 197.615 90.228C197.914 90.7413 198.063 91.3246 198.063 91.978C198.063 92.8086 197.811 93.4666 197.307 93.952C196.803 94.4373 196.15 94.68 195.347 94.68ZM199.29 83.214H200.872V88.114H203.784V83.214H205.366V94.554H203.784V89.248H200.872V94.554H199.29V83.214ZM207.222 83.214H208.776V94.554H207.222V83.214ZM210.611 83.214H213.425C214.405 83.214 215.114 83.48 215.553 84.012C216.001 84.544 216.225 85.3233 216.225 86.35C216.225 87.274 215.987 87.9926 215.511 88.506C215.035 89.0193 214.344 89.276 213.439 89.276H212.193V94.554H210.611V83.214ZM212.921 88.142C213.387 88.142 213.747 88.0906 213.999 87.988C214.26 87.8853 214.447 87.708 214.559 87.456C214.671 87.204 214.727 86.84 214.727 86.364C214.727 85.7853 214.685 85.3606 214.601 85.09C214.517 84.8193 214.349 84.628 214.097 84.516C213.854 84.404 213.467 84.348 212.935 84.348H212.193V88.142H212.921ZM217.337 83.214H220.151C221.131 83.214 221.84 83.48 222.279 84.012C222.727 84.544 222.951 85.3233 222.951 86.35C222.951 87.274 222.713 87.9926 222.237 88.506C221.761 89.0193 221.07 89.276 220.165 89.276H218.919V94.554H217.337V83.214ZM219.647 88.142C220.114 88.142 220.473 88.0906 220.725 87.988C220.986 87.8853 221.173 87.708 221.285 87.456C221.397 87.204 221.453 86.84 221.453 86.364C221.453 85.7853 221.411 85.3606 221.327 85.09C221.243 84.8193 221.075 84.628 220.823 84.516C220.58 84.404 220.193 84.348 219.661 84.348H218.919V88.142H219.647ZM224.148 83.214H225.702V94.554H224.148V83.214ZM227.536 83.214H228.614L231.834 90.746V83.214H233.15V94.554H232.142L228.88 86.812V94.554H227.536V83.214ZM237.635 94.694C236.608 94.694 235.866 94.372 235.409 93.728C234.951 93.0746 234.723 92.1086 234.723 90.83V87.036C234.723 86.1586 234.811 85.44 234.989 84.88C235.175 84.3106 235.488 83.8766 235.927 83.578C236.375 83.27 236.986 83.116 237.761 83.116C238.806 83.116 239.557 83.382 240.015 83.914C240.481 84.446 240.715 85.2813 240.715 86.42V86.84H239.231V86.49C239.231 85.9486 239.198 85.5333 239.133 85.244C239.067 84.9453 238.927 84.7213 238.713 84.572C238.507 84.4226 238.199 84.348 237.789 84.348C237.35 84.348 237.023 84.4506 236.809 84.656C236.594 84.852 236.454 85.118 236.389 85.454C236.333 85.79 236.305 86.238 236.305 86.798V90.998C236.305 91.866 236.407 92.4913 236.613 92.874C236.827 93.2473 237.233 93.434 237.831 93.434C238.419 93.434 238.82 93.2286 239.035 92.818C239.259 92.4073 239.371 91.7493 239.371 90.844V90.06H237.929V88.94H240.799V94.554H239.805L239.651 93.252C239.296 94.2133 238.624 94.694 237.635 94.694ZM248.522 94.68C247.412 94.68 246.614 94.3673 246.128 93.742C245.652 93.1073 245.414 92.1926 245.414 90.998V86.7C245.414 85.524 245.657 84.6326 246.142 84.026C246.628 83.4193 247.421 83.116 248.522 83.116C249.624 83.116 250.412 83.424 250.888 84.04C251.374 84.6466 251.616 85.5333 251.616 86.7V91.012C251.616 92.188 251.374 93.0933 250.888 93.728C250.403 94.3626 249.614 94.68 248.522 94.68ZM248.522 93.434C249.11 93.434 249.507 93.2613 249.712 92.916C249.918 92.5706 250.02 92.048 250.02 91.348V86.378C250.02 85.6873 249.918 85.1786 249.712 84.852C249.507 84.516 249.11 84.348 248.522 84.348C247.925 84.348 247.524 84.516 247.318 84.852C247.113 85.1786 247.01 85.6873 247.01 86.378V91.348C247.01 92.048 247.113 92.5706 247.318 92.916C247.524 93.2613 247.925 93.434 248.522 93.434ZM253.171 83.214H254.249L257.469 90.746V83.214H258.785V94.554H257.777L254.515 86.812V94.554H253.171V83.214ZM116.78 115.68C115.669 115.68 114.871 115.367 114.386 114.742C113.91 114.107 113.672 113.193 113.672 111.998V107.7C113.672 106.524 113.915 105.633 114.4 105.026C114.885 104.419 115.679 104.116 116.78 104.116C117.881 104.116 118.67 104.424 119.146 105.04C119.631 105.647 119.874 106.533 119.874 107.7V112.012C119.874 113.188 119.631 114.093 119.146 114.728C118.661 115.363 117.872 115.68 116.78 115.68ZM116.78 114.434C117.368 114.434 117.765 114.261 117.97 113.916C118.175 113.571 118.278 113.048 118.278 112.348V107.378C118.278 106.687 118.175 106.179 117.97 105.852C117.765 105.516 117.368 105.348 116.78 105.348C116.183 105.348 115.781 105.516 115.576 105.852C115.371 106.179 115.268 106.687 115.268 107.378V112.348C115.268 113.048 115.371 113.571 115.576 113.916C115.781 114.261 116.183 114.434 116.78 114.434ZM121.429 104.214H123.711C124.859 104.214 125.699 104.452 126.231 104.928C126.772 105.395 127.043 106.16 127.043 107.224C127.043 108.68 126.576 109.562 125.643 109.87L127.253 115.554H125.727L124.243 110.234H123.011V115.554H121.429V104.214ZM123.613 109.1C124.294 109.1 124.78 108.965 125.069 108.694C125.368 108.423 125.517 107.933 125.517 107.224C125.517 106.757 125.466 106.393 125.363 106.132C125.26 105.861 125.078 105.665 124.817 105.544C124.556 105.413 124.187 105.348 123.711 105.348H123.011V109.1H123.613ZM128.689 104.214H131.153C132.375 104.214 133.239 104.494 133.743 105.054C134.256 105.614 134.513 106.487 134.513 107.672V111.844C134.513 113.095 134.261 114.028 133.757 114.644C133.262 115.251 132.436 115.554 131.279 115.554H128.689V104.214ZM131.167 114.42C131.717 114.42 132.114 114.313 132.357 114.098C132.609 113.883 132.763 113.594 132.819 113.23C132.884 112.857 132.917 112.297 132.917 111.55V107.868C132.917 107.224 132.875 106.734 132.791 106.398C132.716 106.053 132.553 105.801 132.301 105.642C132.049 105.474 131.657 105.39 131.125 105.39H130.271V114.42H131.167ZM136.071 104.214H140.467V105.39H137.653V109.142H139.935V110.262H137.653V114.42H140.495V115.554H136.071V104.214ZM141.773 104.214H144.055C145.203 104.214 146.043 104.452 146.575 104.928C147.116 105.395 147.387 106.16 147.387 107.224C147.387 108.68 146.92 109.562 145.987 109.87L147.597 115.554H146.071L144.587 110.234H143.355V115.554H141.773V104.214ZM143.957 109.1C144.638 109.1 145.123 108.965 145.413 108.694C145.711 108.423 145.861 107.933 145.861 107.224C145.861 106.757 145.809 106.393 145.707 106.132C145.604 105.861 145.422 105.665 145.161 105.544C144.899 105.413 144.531 105.348 144.055 105.348H143.355V109.1H143.957ZM151.706 115.68C150.754 115.68 150.026 115.386 149.522 114.798C149.028 114.21 148.752 113.403 148.696 112.376L150.096 111.998C150.143 112.726 150.283 113.314 150.516 113.762C150.759 114.21 151.156 114.434 151.706 114.434C152.117 114.434 152.425 114.322 152.63 114.098C152.845 113.865 152.952 113.533 152.952 113.104C152.952 112.637 152.854 112.25 152.658 111.942C152.462 111.634 152.15 111.293 151.72 110.92L149.816 109.24C149.434 108.904 149.154 108.545 148.976 108.162C148.808 107.77 148.724 107.294 148.724 106.734C148.724 105.903 148.962 105.259 149.438 104.802C149.914 104.345 150.563 104.116 151.384 104.116C152.28 104.116 152.957 104.354 153.414 104.83C153.872 105.306 154.147 106.043 154.24 107.042L152.896 107.406C152.85 106.743 152.719 106.235 152.504 105.88C152.299 105.516 151.926 105.334 151.384 105.334C150.983 105.334 150.675 105.441 150.46 105.656C150.246 105.861 150.138 106.169 150.138 106.58C150.138 106.916 150.194 107.201 150.306 107.434C150.418 107.658 150.61 107.887 150.88 108.12L152.798 109.8C153.293 110.239 153.685 110.715 153.974 111.228C154.273 111.741 154.422 112.325 154.422 112.978C154.422 113.809 154.17 114.467 153.666 114.952C153.162 115.437 152.509 115.68 151.706 115.68ZM161.425 115.666C160.501 115.647 159.796 115.349 159.311 114.77C158.825 114.182 158.559 113.384 158.513 112.376L159.913 111.998C159.959 112.726 160.099 113.314 160.333 113.762C160.575 114.21 160.972 114.434 161.523 114.434C161.933 114.434 162.241 114.322 162.447 114.098C162.661 113.865 162.769 113.533 162.769 113.104C162.769 112.647 162.671 112.269 162.475 111.97C162.279 111.662 161.966 111.312 161.537 110.92L159.633 109.24C159.25 108.895 158.97 108.531 158.793 108.148C158.625 107.756 158.541 107.285 158.541 106.734C158.541 105.931 158.765 105.301 159.213 104.844C159.67 104.387 160.295 104.144 161.089 104.116V103.178H161.579V104.116C162.353 104.172 162.937 104.438 163.329 104.914C163.73 105.39 163.973 106.099 164.057 107.042L162.713 107.406C162.666 106.762 162.545 106.258 162.349 105.894C162.153 105.521 161.807 105.334 161.313 105.334C160.407 105.334 159.955 105.749 159.955 106.58C159.955 106.916 160.011 107.196 160.123 107.42C160.235 107.635 160.426 107.868 160.697 108.12L162.615 109.8C163.109 110.257 163.501 110.743 163.791 111.256C164.089 111.76 164.239 112.334 164.239 112.978C164.239 113.743 164.024 114.364 163.595 114.84C163.175 115.307 162.61 115.577 161.901 115.652V116.632H161.425V115.666ZM168.274 115.68C167.387 115.68 166.706 115.437 166.23 114.952C165.754 114.467 165.506 113.771 165.488 112.866V112.74H166.986C166.986 113.319 167.079 113.748 167.266 114.028C167.462 114.299 167.802 114.434 168.288 114.434C169.128 114.434 169.548 113.627 169.548 112.012V110.29C169.398 110.533 169.184 110.724 168.904 110.864C168.633 111.004 168.297 111.074 167.896 111.074C167.009 111.074 166.379 110.794 166.006 110.234C165.642 109.665 165.46 108.853 165.46 107.798C165.46 106.687 165.688 105.796 166.146 105.124C166.603 104.452 167.312 104.116 168.274 104.116C169.207 104.116 169.902 104.461 170.36 105.152C170.826 105.833 171.06 106.725 171.06 107.826V111.634C171.06 112.857 170.845 113.837 170.416 114.574C169.986 115.311 169.272 115.68 168.274 115.68ZM168.274 109.94C168.824 109.94 169.249 109.679 169.548 109.156V107.476C169.548 106.057 169.123 105.348 168.274 105.348C167.807 105.348 167.471 105.544 167.266 105.936C167.07 106.319 166.972 106.818 166.972 107.434C166.972 108.003 166.995 108.456 167.042 108.792C167.088 109.128 167.205 109.403 167.392 109.618C167.578 109.833 167.872 109.94 168.274 109.94ZM175.301 115.68C174.414 115.68 173.733 115.437 173.257 114.952C172.781 114.467 172.534 113.771 172.515 112.866V112.74H174.013C174.013 113.319 174.106 113.748 174.293 114.028C174.489 114.299 174.83 114.434 175.315 114.434C176.155 114.434 176.575 113.627 176.575 112.012V110.29C176.426 110.533 176.211 110.724 175.931 110.864C175.66 111.004 175.324 111.074 174.923 111.074C174.036 111.074 173.406 110.794 173.033 110.234C172.669 109.665 172.487 108.853 172.487 107.798C172.487 106.687 172.716 105.796 173.173 105.124C173.63 104.452 174.34 104.116 175.301 104.116C176.234 104.116 176.93 104.461 177.387 105.152C177.854 105.833 178.087 106.725 178.087 107.826V111.634C178.087 112.857 177.872 113.837 177.443 114.574C177.014 115.311 176.3 115.68 175.301 115.68ZM175.301 109.94C175.852 109.94 176.276 109.679 176.575 109.156V107.476C176.575 106.057 176.15 105.348 175.301 105.348C174.834 105.348 174.498 105.544 174.293 105.936C174.097 106.319 173.999 106.818 173.999 107.434C173.999 108.003 174.022 108.456 174.069 108.792C174.116 109.128 174.232 109.403 174.419 109.618C174.606 109.833 174.9 109.94 175.301 109.94ZM181.208 110.304H179.248V109.17H181.208V106.888H182.328V109.17H184.358V110.304H182.328V112.586H181.208V110.304ZM185.885 108.456L186.991 106.902L185.339 106.272L185.703 105.32L187.285 106.16L187.117 104.228H188.251L188.069 106.16L189.665 105.32L190.015 106.272L188.363 106.916L189.483 108.456L188.573 108.988L187.677 107.238L186.767 108.988L185.885 108.456Z" fill="#333333"/>
<g clip-path="url(#clip0_168_527)">
<path d="M86.0645 99.4464H83.1222V91.4391C83.1222 90.3736 82.2616 89.5069 81.2038 89.5069H76.7761V87.5872C76.7761 86.5542 75.9417 85.7139 74.9162 85.7139H54.8599C53.8344 85.7139 53 86.5542 53 87.5872V88.4132C53 88.6984 53.2296 88.9296 53.5127 88.9296C53.7958 88.9296 54.0254 88.6984 54.0254 88.4132V87.5872C54.0254 87.1237 54.3998 86.7466 54.8599 86.7466H74.9161C75.3762 86.7466 75.7506 87.1237 75.7506 87.5872V103.851H54.0254V90.8343C54.0254 90.5491 53.7958 90.3179 53.5127 90.3179C53.2296 90.3179 53 90.5491 53 90.8343V108.338C53 109.371 53.8344 110.212 54.8599 110.212H56.0382C56.2959 111.627 57.5298 112.703 59.0087 112.703C60.4875 112.703 61.7214 111.627 61.9791 110.212H70.1349C70.418 110.212 70.6476 109.981 70.6476 109.695C70.6476 109.41 70.418 109.179 70.1349 109.179H61.9906C61.7603 107.73 60.5108 106.62 59.0086 106.62C57.5064 106.62 56.257 107.73 56.0267 109.179H54.8599C54.3998 109.179 54.0254 108.802 54.0254 108.338V104.883H75.7506V109.179H72.4865C72.2034 109.179 71.9738 109.41 71.9738 109.695C71.9738 109.981 72.2034 110.212 72.4865 110.212H79.1356C79.3933 111.627 80.6272 112.703 82.106 112.703C83.5847 112.703 84.8187 111.627 85.0765 110.212H86.0815C87.1394 110.212 87.9999 109.345 87.9999 108.279V101.396C88 100.321 87.1318 99.4464 86.0645 99.4464ZM59.0086 107.653C60.1084 107.653 61.0032 108.554 61.0032 109.662C61.0032 110.769 60.1084 111.671 59.0086 111.671C57.9088 111.671 57.014 110.769 57.014 109.662C57.014 108.554 57.9088 107.653 59.0086 107.653ZM82.1061 111.671C81.0062 111.671 80.1115 110.769 80.1115 109.662C80.1115 108.554 81.0062 107.653 82.1061 107.653C83.2059 107.653 84.1006 108.554 84.1006 109.662C84.1006 110.769 83.2059 111.671 82.1061 111.671ZM86.9746 104.196H85.6102C85.3276 104.196 85.0975 103.964 85.0975 103.679C85.0975 103.395 85.3275 103.163 85.6102 103.163H86.9746V104.196ZM86.9746 102.13H85.6102C84.7622 102.13 84.0721 102.825 84.0721 103.679C84.0721 104.533 84.7621 105.228 85.6102 105.228H86.9746V108.279C86.9746 108.775 86.574 109.179 86.0816 109.179H85.088C84.8577 107.73 83.6083 106.62 82.1061 106.62C80.6039 106.62 79.3545 107.73 79.1241 109.179H76.776V90.5396H81.2037C81.6962 90.5396 82.0968 90.9431 82.0968 91.4391V91.5594H78.6642C78.3811 91.5594 78.1515 91.7905 78.1515 92.0758V99.9628C78.1515 100.248 78.3811 100.479 78.6642 100.479H86.0645C86.5663 100.479 86.9745 100.89 86.9745 101.396V102.13H86.9746ZM82.0968 92.5922V99.4464H79.177V92.5922H82.0968Z" fill="#333333"/>
<path d="M79.8494 102.13H78.6641C78.3809 102.13 78.1514 102.361 78.1514 102.647C78.1514 102.932 78.3809 103.163 78.6641 103.163H79.8494C80.1326 103.163 80.3621 102.932 80.3621 102.647C80.3621 102.361 80.1326 102.13 79.8494 102.13Z" fill="#333333"/>
<path d="M67.8953 94.1442C68.1784 94.1442 68.4079 93.913 68.4079 93.6278C68.4079 93.3425 68.1784 93.1114 67.8953 93.1114H65.8457C65.5626 93.1114 65.333 93.3425 65.333 93.6278V97.7577C65.333 98.0429 65.5626 98.2741 65.8457 98.2741H67.8953C68.1784 98.2741 68.4079 98.0429 68.4079 97.7577C68.4079 97.4724 68.1784 97.2413 67.8953 97.2413H66.3584V96.2091H67.8953C68.1784 96.2091 68.4079 95.978 68.4079 95.6928C68.4079 95.4075 68.1784 95.1764 67.8953 95.1764H66.3584V94.1442H67.8953Z" fill="#333333"/>
<path d="M71.927 94.1442C72.2102 94.1442 72.4397 93.913 72.4397 93.6278C72.4397 93.3425 72.2102 93.1114 71.927 93.1114H69.8774C69.5943 93.1114 69.3647 93.3425 69.3647 93.6278V97.7577C69.3647 98.0429 69.5943 98.2741 69.8774 98.2741H71.927C72.2102 98.2741 72.4397 98.0429 72.4397 97.7577C72.4397 97.4724 72.2102 97.2413 71.927 97.2413H70.3901V96.2091H71.927C72.2102 96.2091 72.4397 95.978 72.4397 95.6928C72.4397 95.4075 72.2102 95.1764 71.927 95.1764H70.3901V94.1442H71.927Z" fill="#333333"/>
<path d="M59.8982 94.1442C60.1813 94.1442 60.4109 93.913 60.4109 93.6278C60.4109 93.3425 60.1813 93.1114 59.8982 93.1114H57.8486C57.5655 93.1114 57.3359 93.3425 57.3359 93.6278V97.7577C57.3359 98.0429 57.5655 98.2741 57.8486 98.2741C58.1318 98.2741 58.3613 98.0429 58.3613 97.7577V96.2091H59.8982C60.1813 96.2091 60.4109 95.978 60.4109 95.6928C60.4109 95.4075 60.1813 95.1764 59.8982 95.1764H58.3613V94.1442H59.8982Z" fill="#333333"/>
<path d="M64.3757 95.6928V93.6278C64.3757 93.3426 64.1462 93.1115 63.863 93.1115H61.8135C61.5303 93.1115 61.3008 93.3426 61.3008 93.6278V97.7577C61.3008 98.043 61.5303 98.2741 61.8135 98.2741C62.0966 98.2741 62.3262 98.043 62.3262 97.7577V96.3673L63.4365 98.0442C63.5352 98.1935 63.6978 98.2742 63.8635 98.2742C63.9613 98.2742 64.06 98.2461 64.1475 98.1874C64.383 98.0291 64.4467 97.7085 64.2896 97.4712L63.454 96.2092H63.863C64.1462 96.2092 64.3757 95.978 64.3757 95.6928ZM63.3503 95.1764H62.3262V94.1442H63.3503V95.1764Z" fill="#333333"/>
</g>
<rect x="122" y="63.4532" width="385" height="1.00719" fill="#B93B54"/>
<path d="M437.371 92.2787H441.753V93.4127H438.953V97.1927H441.123V98.3127H438.953V103.619H437.371V92.2787ZM442.84 92.2787H445.122C446.27 92.2787 447.11 92.5167 447.642 92.9927C448.183 93.4594 448.454 94.2247 448.454 95.2887C448.454 96.7447 447.987 97.6267 447.054 97.9347L448.664 103.619H447.138L445.654 98.2987H444.422V103.619H442.84V92.2787ZM445.024 97.1647C445.705 97.1647 446.191 97.0294 446.48 96.7587C446.779 96.488 446.928 95.998 446.928 95.2887C446.928 94.822 446.877 94.458 446.774 94.1967C446.671 93.926 446.489 93.73 446.228 93.6087C445.967 93.478 445.598 93.4127 445.122 93.4127H444.422V97.1647H445.024ZM450.1 92.2787H454.496V93.4547H451.682V97.2067H453.964V98.3267H451.682V102.485H454.524V103.619H450.1V92.2787ZM455.801 92.2787H460.197V93.4547H457.383V97.2067H459.665V98.3267H457.383V102.485H460.225V103.619H455.801V92.2787ZM464.701 92.2787H466.983C468.131 92.2787 468.971 92.5167 469.503 92.9927C470.045 93.4594 470.315 94.2247 470.315 95.2887C470.315 96.7447 469.849 97.6267 468.915 97.9347L470.525 103.619H468.999L467.515 98.2987H466.283V103.619H464.701V92.2787ZM466.885 97.1647C467.567 97.1647 468.052 97.0294 468.341 96.7587C468.64 96.488 468.789 95.998 468.789 95.2887C468.789 94.822 468.738 94.458 468.635 94.1967C468.533 93.926 468.351 93.73 468.089 93.6087C467.828 93.478 467.459 93.4127 466.983 93.4127H466.283V97.1647H466.885ZM471.961 92.2787H476.357V93.4547H473.543V97.2067H475.825V98.3267H473.543V102.485H476.385V103.619H471.961V92.2787ZM478.908 93.4547H476.99V92.2787H482.352V93.4547H480.49V103.619H478.908V93.4547ZM486.371 103.745C485.578 103.745 484.957 103.586 484.509 103.269C484.071 102.951 483.767 102.508 483.599 101.939C483.431 101.369 483.347 100.655 483.347 99.7967V92.2787H484.859V99.8667C484.859 100.725 484.957 101.379 485.153 101.827C485.359 102.275 485.765 102.499 486.371 102.499C486.978 102.499 487.379 102.275 487.575 101.827C487.781 101.379 487.883 100.725 487.883 99.8667V92.2787H489.381V99.7967C489.381 100.655 489.297 101.369 489.129 101.939C488.961 102.508 488.658 102.951 488.219 103.269C487.781 103.586 487.165 103.745 486.371 103.745ZM491.047 92.2787H493.329C494.477 92.2787 495.317 92.5167 495.849 92.9927C496.39 93.4594 496.661 94.2247 496.661 95.2887C496.661 96.7447 496.194 97.6267 495.261 97.9347L496.871 103.619H495.345L493.861 98.2987H492.629V103.619H491.047V92.2787ZM493.231 97.1647C493.912 97.1647 494.398 97.0294 494.687 96.7587C494.986 96.488 495.135 95.998 495.135 95.2887C495.135 94.822 495.084 94.458 494.981 94.1967C494.878 93.926 494.696 93.73 494.435 93.6087C494.174 93.478 493.805 93.4127 493.329 93.4127H492.629V97.1647H493.231ZM498.307 92.2787H499.385L502.605 99.8107V92.2787H503.921V103.619H502.913L499.651 95.8767V103.619H498.307V92.2787ZM508.377 103.745C507.425 103.745 506.697 103.451 506.193 102.863C505.699 102.275 505.423 101.467 505.367 100.441L506.767 100.063C506.814 100.791 506.954 101.379 507.187 101.827C507.43 102.275 507.827 102.499 508.377 102.499C508.788 102.499 509.096 102.387 509.301 102.163C509.516 101.929 509.623 101.598 509.623 101.169C509.623 100.702 509.525 100.315 509.329 100.007C509.133 99.6987 508.821 99.358 508.391 98.9847L506.487 97.3047C506.105 96.9687 505.825 96.6094 505.647 96.2267C505.479 95.8347 505.395 95.3587 505.395 94.7987C505.395 93.968 505.633 93.324 506.109 92.8667C506.585 92.4094 507.234 92.1807 508.055 92.1807C508.951 92.1807 509.628 92.4187 510.085 92.8947C510.543 93.3707 510.818 94.108 510.911 95.1067L509.567 95.4707C509.521 94.808 509.39 94.2994 509.175 93.9447C508.97 93.5807 508.597 93.3987 508.055 93.3987C507.654 93.3987 507.346 93.506 507.131 93.7207C506.917 93.926 506.809 94.234 506.809 94.6447C506.809 94.9807 506.865 95.2654 506.977 95.4987C507.089 95.7227 507.281 95.9514 507.551 96.1847L509.469 97.8647C509.964 98.3034 510.356 98.7794 510.645 99.2927C510.944 99.806 511.093 100.389 511.093 101.043C511.093 101.873 510.841 102.531 510.337 103.017C509.833 103.502 509.18 103.745 508.377 103.745ZM517.9 103.745C517.134 103.745 516.532 103.511 516.094 103.045C515.664 102.569 515.45 101.953 515.45 101.197C515.45 100.534 515.594 99.9414 515.884 99.4187C516.182 98.8867 516.588 98.3874 517.102 97.9207L516.794 97.3467C516.495 96.8054 516.266 96.3387 516.108 95.9467C515.949 95.5454 515.87 95.1254 515.87 94.6867C515.87 93.9307 516.084 93.324 516.514 92.8667C516.952 92.4094 517.545 92.1807 518.292 92.1807C518.992 92.1807 519.566 92.372 520.014 92.7547C520.471 93.128 520.7 93.6367 520.7 94.2807C520.7 94.9434 520.494 95.5827 520.084 96.1987C519.682 96.8054 519.178 97.4027 518.572 97.9907L520.28 100.679C520.55 100.156 520.737 99.4 520.84 98.4107H522.324C522.324 98.9334 522.212 99.498 521.988 100.105C521.773 100.702 521.521 101.206 521.232 101.617C521.362 101.785 521.526 101.925 521.722 102.037C521.918 102.139 522.123 102.191 522.338 102.191V103.731H522.142C521.89 103.731 521.656 103.675 521.442 103.563C521.236 103.451 521.068 103.339 520.938 103.227C520.807 103.105 520.606 102.909 520.336 102.639C520.065 102.975 519.724 103.245 519.314 103.451C518.903 103.647 518.432 103.745 517.9 103.745ZM518.054 97.1787C518.371 96.8054 518.642 96.3527 518.866 95.8207C519.09 95.2887 519.202 94.7754 519.202 94.2807C519.202 94.01 519.118 93.8 518.95 93.6507C518.791 93.492 518.572 93.4127 518.292 93.4127C517.974 93.4127 517.741 93.5387 517.592 93.7907C517.442 94.0334 517.368 94.332 517.368 94.6867C517.368 95.0787 517.428 95.4754 517.55 95.8767C517.671 96.2687 517.839 96.7027 518.054 97.1787ZM517.9 102.499C518.469 102.499 518.978 102.219 519.426 101.659L517.69 98.9847C517.466 99.274 517.284 99.6147 517.144 100.007C517.013 100.399 516.948 100.795 516.948 101.197C516.948 101.57 517.022 101.883 517.172 102.135C517.321 102.377 517.564 102.499 517.9 102.499ZM527.209 92.2787H531.605V93.4547H528.791V97.2067H531.073V98.3267H528.791V102.485H531.633V103.619H527.209V92.2787ZM534.576 97.6827L532.252 92.2787H533.722L535.444 96.2827L537.012 92.2787H538.482L536.102 97.8087L538.594 103.619H537.124L535.276 99.3487L533.68 103.619H532.21L534.576 97.6827ZM542.506 103.745C541.386 103.745 540.598 103.413 540.14 102.751C539.683 102.079 539.454 101.155 539.454 99.9787V95.9747C539.454 94.7334 539.678 93.7907 540.126 93.1467C540.574 92.5027 541.368 92.1807 542.506 92.1807C543.524 92.1807 544.252 92.456 544.69 93.0067C545.138 93.5574 545.362 94.3694 545.362 95.4427V96.3387H543.864V95.5407C543.864 95.018 543.841 94.6167 543.794 94.3367C543.748 94.0567 543.626 93.8327 543.43 93.6647C543.244 93.4967 542.94 93.4127 542.52 93.4127C542.091 93.4127 541.769 93.506 541.554 93.6927C541.349 93.87 541.214 94.122 541.148 94.4487C541.083 94.766 541.05 95.1954 541.05 95.7367V100.231C541.05 100.809 541.097 101.262 541.19 101.589C541.284 101.915 541.433 102.149 541.638 102.289C541.853 102.429 542.147 102.499 542.52 102.499C542.922 102.499 543.22 102.41 543.416 102.233C543.612 102.055 543.734 101.813 543.78 101.505C543.836 101.197 543.864 100.777 543.864 100.245V99.4047H545.362V100.245C545.362 101.374 545.148 102.242 544.718 102.849C544.298 103.446 543.561 103.745 542.506 103.745ZM546.869 92.2787H548.451V97.1787H551.363V92.2787H552.945V103.619H551.363V98.3127H548.451V103.619H546.869V92.2787ZM556.509 92.2787H558.035L560.457 103.619H558.959L558.441 100.763H556.131L555.585 103.619H554.101L556.509 92.2787ZM558.231 99.6287L557.279 94.5187L556.341 99.6287H558.231ZM561.608 92.2787H562.686L565.906 99.8107V92.2787H567.222V103.619H566.214L562.952 95.8767V103.619H561.608V92.2787ZM571.706 103.759C570.679 103.759 569.937 103.437 569.48 102.793C569.023 102.139 568.794 101.173 568.794 99.8947V96.1007C568.794 95.2234 568.883 94.5047 569.06 93.9447C569.247 93.3754 569.559 92.9414 569.998 92.6427C570.446 92.3347 571.057 92.1807 571.832 92.1807C572.877 92.1807 573.629 92.4467 574.086 92.9787C574.553 93.5107 574.786 94.346 574.786 95.4847V95.9047H573.302V95.5547C573.302 95.0134 573.269 94.598 573.204 94.3087C573.139 94.01 572.999 93.786 572.784 93.6367C572.579 93.4874 572.271 93.4127 571.86 93.4127C571.421 93.4127 571.095 93.5154 570.88 93.7207C570.665 93.9167 570.525 94.1827 570.46 94.5187C570.404 94.8547 570.376 95.3027 570.376 95.8627V100.063C570.376 100.931 570.479 101.556 570.684 101.939C570.899 102.312 571.305 102.499 571.902 102.499C572.49 102.499 572.891 102.293 573.106 101.883C573.33 101.472 573.442 100.814 573.442 99.9087V99.1247H572V98.0047H574.87V103.619H573.876L573.722 102.317C573.367 103.278 572.695 103.759 571.706 103.759ZM576.496 92.2787H580.892V93.4547H578.078V97.2067H580.36V98.3267H578.078V102.485H580.92V103.619H576.496V92.2787ZM584.871 103.745C583.919 103.745 583.191 103.451 582.687 102.863C582.193 102.275 581.917 101.467 581.861 100.441L583.261 100.063C583.308 100.791 583.448 101.379 583.681 101.827C583.924 102.275 584.321 102.499 584.871 102.499C585.282 102.499 585.59 102.387 585.795 102.163C586.01 101.929 586.117 101.598 586.117 101.169C586.117 100.702 586.019 100.315 585.823 100.007C585.627 99.6987 585.315 99.358 584.885 98.9847L582.981 97.3047C582.599 96.9687 582.319 96.6094 582.141 96.2267C581.973 95.8347 581.889 95.3587 581.889 94.7987C581.889 93.968 582.127 93.324 582.603 92.8667C583.079 92.4094 583.728 92.1807 584.549 92.1807C585.445 92.1807 586.122 92.4187 586.579 92.8947C587.037 93.3707 587.312 94.108 587.405 95.1067L586.061 95.4707C586.015 94.808 585.884 94.2994 585.669 93.9447C585.464 93.5807 585.091 93.3987 584.549 93.3987C584.148 93.3987 583.84 93.506 583.625 93.7207C583.411 93.926 583.303 94.234 583.303 94.6447C583.303 94.9807 583.359 95.2654 583.471 95.4987C583.583 95.7227 583.775 95.9514 584.045 96.1847L585.963 97.8647C586.458 98.3034 586.85 98.7794 587.139 99.2927C587.438 99.806 587.587 100.389 587.587 101.043C587.587 101.873 587.335 102.531 586.831 103.017C586.327 103.502 585.674 103.745 584.871 103.745ZM589.109 96.5207L590.215 94.9667L588.563 94.3367L588.927 93.3847L590.509 94.2247L590.341 92.2927H591.475L591.293 94.2247L592.889 93.3847L593.239 94.3367L591.587 94.9807L592.707 96.5207L591.797 97.0527L590.901 95.3027L589.991 97.0527L589.109 96.5207Z" fill="#333333"/>
<g clip-path="url(#clip1_168_527)">
<path d="M410.697 90.1327L399.013 83.6708C398.837 83.5737 398.624 83.5737 398.449 83.6708L394.045 86.1063C393.952 86.131 393.865 86.178 393.793 86.2456L386.765 90.1327C386.577 90.2362 386.461 90.4345 386.461 90.65V98.4654C385.275 98.8389 384.189 99.4975 383.285 100.408C380.931 102.779 380.33 106.396 381.791 109.408C381.933 109.701 382.284 109.822 382.575 109.679C382.866 109.536 382.986 109.182 382.844 108.89C381.603 106.331 382.113 103.257 384.114 101.242C385.365 99.9818 387.029 99.2877 388.798 99.2877C390.568 99.2877 392.231 99.9818 393.483 101.242C394.734 102.502 395.423 104.178 395.423 105.96C395.423 107.742 394.734 109.418 393.482 110.678C391.481 112.693 388.43 113.207 385.889 111.957C385.599 111.813 385.248 111.935 385.106 112.228C384.964 112.521 385.084 112.874 385.375 113.017C386.464 113.553 387.633 113.814 388.793 113.814C390.817 113.814 392.814 113.02 394.311 111.512C394.998 110.821 395.54 110.023 395.924 109.156L398.449 110.553C398.536 110.601 398.634 110.626 398.731 110.626C398.828 110.626 398.925 110.601 399.013 110.553L410.697 104.091C410.884 103.987 411 103.789 411 103.574V99.4723C411 99.1464 410.738 98.8822 410.415 98.8822C410.091 98.8822 409.829 99.1464 409.829 99.4723V103.224L399.318 109.037V97.4601L402.787 95.5416V98.5827C402.787 98.7916 402.896 98.9848 403.075 99.0908C403.167 99.1455 403.27 99.1729 403.373 99.1729C403.47 99.1729 403.567 99.1487 403.655 99.0998L406.159 97.7118C406.346 97.6081 406.462 97.41 406.462 97.195V93.5088L409.829 91.6473V94.7514C409.829 95.0773 410.091 95.3415 410.415 95.3415C410.738 95.3415 411 95.0773 411 94.7514V90.65C411 90.4347 410.884 90.2362 410.697 90.1327ZM398.731 84.8612L409.197 90.65L405.895 92.476L395.429 86.6872L398.731 84.8612ZM398.731 96.4386L388.264 90.65L391.687 88.7569L402.153 94.5455L398.731 96.4386ZM403.371 93.8724L392.904 88.0838L394.212 87.3606L404.678 93.1492L403.371 93.8724ZM394.311 100.408C392.838 98.9244 390.881 98.1076 388.798 98.1076C388.404 98.1076 388.015 98.1369 387.633 98.1943V91.6473L398.147 97.4621V109.039L396.322 108.03C396.501 107.364 396.594 106.669 396.594 105.96C396.594 103.863 395.783 101.891 394.311 100.408ZM405.291 96.8462L403.959 97.5845V94.8936L405.291 94.1571V96.8462Z" fill="#333333"/>
<path d="M410.414 96.518C410.26 96.518 410.109 96.5811 410 96.6909C409.891 96.8006 409.828 96.9528 409.828 97.1081C409.828 97.2633 409.891 97.4154 410 97.5252C410.109 97.6351 410.26 97.6981 410.414 97.6981C410.568 97.6981 410.719 97.6351 410.828 97.5252C410.937 97.4154 411 97.2633 411 97.1081C411 96.9528 410.937 96.8006 410.828 96.6909C410.719 96.5811 410.568 96.518 410.414 96.518Z" fill="#333333"/>
<path d="M386.827 106.549C386.977 106.549 387.128 106.492 387.242 106.377C387.471 106.146 387.471 105.772 387.242 105.542L386.836 105.133H390.299C391.139 105.133 391.822 105.821 391.822 106.667C391.822 107.513 391.139 108.202 390.299 108.202H388.247C387.923 108.202 387.661 108.466 387.661 108.792C387.661 109.118 387.923 109.382 388.247 109.382H390.299C391.785 109.382 392.994 108.164 392.994 106.667C392.994 105.17 391.785 103.953 390.299 103.953H386.836L387.242 103.544C387.471 103.313 387.471 102.94 387.242 102.709C387.013 102.479 386.642 102.479 386.413 102.709L385.007 104.125C384.778 104.356 384.778 104.73 385.007 104.96L386.413 106.376C386.528 106.492 386.678 106.549 386.827 106.549Z" fill="#333333"/>
<path d="M383.7 111.685C383.533 111.685 383.367 111.614 383.252 111.475L383.251 111.474C383.042 111.225 383.075 110.853 383.322 110.643C383.57 110.433 383.939 110.465 384.148 110.714C384.356 110.964 384.324 111.337 384.077 111.547C383.967 111.64 383.833 111.685 383.7 111.685Z" fill="#333333"/>
</g>
<defs>
<clipPath id="clip0_168_527">
<rect width="35" height="35.2518" fill="white" transform="translate(53 81.5827)"/>
</clipPath>
<clipPath id="clip1_168_527">
<rect width="30" height="30.2158" fill="white" transform="translate(381 83.5971)"/>
</clipPath>
</defs>
</svg>
